
<svg width="502px" height="242px" viewBox="0 0 502 242" version="1.1" xmlns="http://www.w3.org/2000/svg" xmlns:xlink="http://www.w3.org/1999/xlink">
    <!-- Generator: Sketch 46.1 (44463) - http://www.bohemiancoding.com/sketch -->
    <desc>Created with Sketch.</desc>
    <defs>
        <polygon id="path-1" points="0 136 135.464 136 135.464 0 0 0"></polygon>
    </defs>
    <g id="Page-1" stroke="none" stroke-width="1" fill="none" fill-rule="evenodd">
        <g id="PD--Home" transform="translate(-770.000000, -574.000000)">
            <g id="team" transform="translate(770.000000, 574.000000)">
                <rect id="Rectangle" fill="#16C6CC" x="0" y="0" width="502" height="242" rx="6"></rect>
                <g id="Group-2" stroke-width="1" transform="translate(183.000000, 17.000000)">
                    <g id="Page-1">
                        <mask id="mask-2" fill="white">
                            <use xlink:href="#path-1"></use>
                        </mask>
                        <g id="Clip-36"></g>
                        <polygon id="Fill-35" fill="#FFFFFF" mask="url(#mask-2)" points="66.733 7.454 68.729 7.454 68.729 0 66.733 0"></polygon>
                        <polygon id="Fill-37" fill="#FFFFFF" mask="url(#mask-2)" points="52.6103 1.6963 54.5713 1.2753 56.1163 8.5753 54.1653 8.9863"></polygon>
                        <polygon id="Fill-38" fill="#FFFFFF" mask="url(#mask-2)" points="39.1597 6.2851 40.9857 5.4731 44.0237 12.2841 42.1907 13.0971"></polygon>
                        <polygon id="Fill-39" fill="#FFFFFF" mask="url(#mask-2)" points="26.9585 13.5693 28.5665 12.3963 32.9515 18.4323 31.3355 19.6053"></polygon>
                        <polygon id="Fill-40" fill="#FFFFFF" mask="url(#mask-2)" points="16.5288 23.2422 17.8638 21.7572 23.4058 26.7442 22.0658 28.2302"></polygon>
                        <polygon id="Fill-41" fill="#FFFFFF" mask="url(#mask-2)" points="8.3389 34.8623 9.3389 33.1333 15.7969 36.8603 14.7969 38.6043"></polygon>
                        <polygon id="Fill-42" fill="#FFFFFF" mask="url(#mask-2)" points="2.751 47.9394 3.366 46.0394 10.455 48.3404 9.841 50.2454"></polygon>
                        <polygon id="Fill-43" fill="#FFFFFF" mask="url(#mask-2)" points="0 61.8896 0.206 59.8916 7.616 60.6796 7.411 62.6636"></polygon>
                        <polygon id="Fill-44" fill="#FFFFFF" mask="url(#mask-2)" points="0 74.1123 7.411 73.3383 7.616 75.3223 0.206 76.1083"></polygon>
                        <polygon id="Fill-45" fill="#FFFFFF" mask="url(#mask-2)" points="2.751 88.0644 9.841 85.7654 10.455 87.6604 3.366 89.9624"></polygon>
                        <polygon id="Fill-46" fill="#FFFFFF" mask="url(#mask-2)" points="8.3389 101.1396 14.7969 97.4116 15.7969 99.1436 9.3389 102.8686"></polygon>
                        <polygon id="Fill-47" fill="#FFFFFF" mask="url(#mask-2)" points="16.5288 112.7646 22.0688 107.7746 23.4058 109.2596 17.8638 114.2466"></polygon>
                        <polygon id="Fill-48" fill="#FFFFFF" mask="url(#mask-2)" points="26.9585 122.4297 31.3375 116.4007 32.9515 117.5677 28.5715 123.6037"></polygon>
                        <polygon id="Fill-49" fill="#FFFFFF" mask="url(#mask-2)" points="39.1597 129.7168 42.1907 122.9078 44.0237 123.7218 40.9857 130.5308"></polygon>
                        <polygon id="Fill-50" fill="#FFFFFF" mask="url(#mask-2)" points="52.6103 134.3183 54.1653 127.0183 56.1163 127.4403 54.5713 134.7243"></polygon>
                        <polygon id="Fill-51" fill="#FFFFFF" mask="url(#mask-2)" points="66.733 136 68.729 136 68.729 128.548 66.733 128.548"></polygon>
                        <polygon id="Fill-52" fill="#FFFFFF" mask="url(#mask-2)" points="79.3335 127.4404 81.2955 127.0184 82.8535 134.3184 80.8935 134.7244"></polygon>
                        <polygon id="Fill-53" fill="#FFFFFF" mask="url(#mask-2)" points="91.4526 123.7216 93.2706 122.9086 96.3046 129.7166 94.4746 130.5316"></polygon>
                        <polygon id="Fill-54" fill="#FFFFFF" mask="url(#mask-2)" points="102.5093 117.5674 104.1253 116.4004 108.5173 122.4294 106.8923 123.6034"></polygon>
                        <polygon id="Fill-55" fill="#FFFFFF" mask="url(#mask-2)" points="112.0571 109.2597 113.3931 107.7767 118.9331 112.7617 117.6011 114.2467"></polygon>
                        <polygon id="Fill-56" fill="#FFFFFF" mask="url(#mask-2)" points="119.6675 99.1435 120.6625 97.4165 127.1235 101.1395 126.1235 102.8695"></polygon>
                        <polygon id="Fill-57" fill="#FFFFFF" mask="url(#mask-2)" points="125.0063 87.6601 125.6223 85.7681 132.7123 88.0641 132.0953 89.9631"></polygon>
                        <polygon id="Fill-58" fill="#FFFFFF" mask="url(#mask-2)" points="127.8462 75.3271 128.0512 73.3441 135.4642 74.1121 135.2592 76.1081"></polygon>
                        <polygon id="Fill-59" fill="#FFFFFF" mask="url(#mask-2)" points="127.8462 60.6806 135.2562 59.8916 135.4642 61.8896 128.0532 62.6656"></polygon>
                        <polygon id="Fill-60" fill="#FFFFFF" mask="url(#mask-2)" points="125.0063 48.3418 132.0953 46.0388 132.7123 47.9398 125.6273 50.2448"></polygon>
                        <polygon id="Fill-61" fill="#FFFFFF" mask="url(#mask-2)" points="119.6694 36.8642 126.1234 33.1372 127.1234 34.8662 120.6694 38.6042"></polygon>
                        <polygon id="Fill-62" fill="#FFFFFF" mask="url(#mask-2)" points="112.0639 26.7441 117.6009 21.7571 118.9329 23.2421 113.3979 28.2301"></polygon>
                        <polygon id="Fill-63" fill="#FFFFFF" mask="url(#mask-2)" points="102.5171 18.4326 106.8921 12.3996 108.5171 13.5736 104.1331 19.6056"></polygon>
                        <polygon id="Fill-64" fill="#FFFFFF" mask="url(#mask-2)" points="91.4526 12.2822 94.4746 5.4772 96.3046 6.2852 93.2776 13.0942"></polygon>
                        <polygon id="Fill-65" fill="#FFFFFF" mask="url(#mask-2)" points="79.3501 8.5752 80.8931 1.2782 82.8531 1.6962 81.2981 8.9862"></polygon>
                    </g>
                    <path d="M67.5031388,19 C94.2876812,19.0079057 116,40.8829452 116,67.8737556 C116,82.1735646 109.895912,95.0329572 100.186966,103.966385 C99.7240001,104.371156 99.2618189,104.769603 98.7980682,105.179118 C91.2148427,112.143238 86.4510015,122.156583 86.4510015,133.306766 L86.4510015,144 L67.5031388,144 L48.5489985,144 L48.5489985,133.306766 C48.5489985,122.156583 43.7875113,112.143238 36.2019318,105.179118 C35.7389658,104.769603 35.2752152,104.371156 34.8146033,103.966385 C25.1040885,95.0329572 19,82.1735646 19,67.8737556 C19,40.8829452 40.7131035,19.0079057 67.5031388,19 Z" id="Fill-1" fill="#FFD85C"></path>
                    <polygon id="Fill-35" fill="#242D3C" points="48 165 87 165 87 144 48 144"></polygon>
                    <polygon id="Fill-36" fill="#3E4959" points="46 150 89 150 89 147 46 147"></polygon>
                    <polygon id="Fill-37" fill="#3E4959" points="46 156 89 156 89 153 46 153"></polygon>
                    <polygon id="Fill-38" fill="#3E4959" points="46 162 89 162 89 159 46 159"></polygon>
                    <polygon id="Fill-39" fill="#3E4959" points="55 172 80 172 80 165 55 165"></polygon>
                    <path d="M106.900537,68 C106.900537,89.633941 89.3660422,107.167734 67.7321012,107.167734 C46.0995627,107.167734 28.5622631,89.633941 28.5622631,68 C28.5622631,46.3653578 46.0995627,28.8322656 67.7321012,28.8322656 C89.3660422,28.8322656 106.900537,46.3653578 106.900537,68 Z" id="Fill-1" fill="#FFFFFF"></path>
                    <path d="M59.8339001,38.5561439 C63.3485126,38.5561439 66.1829229,41.3905541 66.1829229,44.9072704 L66.1829229,91.0866989 C66.1829229,93.9891294 64.245398,96.4343516 61.5827915,97.1895866 C61.5827915,97.1895866 61.5764803,97.1951965 61.5687667,97.1895866 C61.379432,97.2421796 61.1872924,97.2807478 60.9657007,97.3221209 C60.746914,97.3712077 60.5042851,97.4006597 60.2413203,97.4125808 C60.1143959,97.4392279 59.9685381,97.4392279 59.8339001,97.4392279 C56.4623404,97.4392279 53.8305884,94.933699 53.519238,91.7269306 L53.519238,91.7199182 C52.6293651,92.1967611 51.5880244,92.4821656 50.5088167,92.4821656 C47.0110339,92.4821656 44.1583915,89.6393405 44.1583915,86.1205205 C44.1583915,85.3765054 44.3112617,84.6233741 44.5426707,83.958599 C44.4164476,83.958599 44.2874195,83.9656114 44.1583915,83.9656114 C40.6606086,83.9656114 37.8149786,81.1297987 37.8149786,77.6144849 C37.8149786,76.0591356 38.3745677,74.6566566 39.2952953,73.5465944 C37.3346295,72.4694904 36.0106893,70.3861078 36.0106893,67.9962834 C36.0106893,65.3350794 37.6501873,63.0546484 39.9719914,62.1212986 C38.893485,60.9810831 38.2308136,59.4411611 38.2308136,57.7532775 C38.2308136,54.2547935 41.0806511,51.4077609 44.5791352,51.4077609 L44.6955409,51.4077609 C44.5363596,50.8593916 44.4458997,50.2394959 44.4458997,49.6287162 C44.4458997,46.1316346 47.2985421,43.2839009 50.7963249,43.2839009 C51.7458033,43.2839009 52.7583931,43.5104013 53.5739347,43.8883694 C54.0563875,40.8639232 56.6811271,38.5561439 59.8339001,38.5561439" id="Fill-3" fill="#F05424"></path>
                    <path d="M52.7163889,44.9063588 C52.7163889,48.8368064 55.9070288,52.0330562 59.8353727,52.0330562 C60.2659338,52.0330562 60.6158523,51.6845402 60.6158523,51.2525766 C60.6158523,50.8311317 60.2659338,50.486823 59.8353727,50.486823 C56.7562299,50.486823 54.2556097,47.9833979 54.2556097,44.9063588 C54.2556097,41.827216 56.7562299,39.3230896 59.8353727,39.3230896 C62.9117105,39.3230896 65.4158369,41.827216 65.4158369,44.9063588 L65.4158369,91.0935009 C65.4158369,94.1726438 62.9117105,96.6767701 59.8353727,96.6767701 C56.7562299,96.6767701 54.2556097,94.1726438 54.2556097,91.0935009 C54.2556097,88.0171631 56.7562299,85.5130367 59.8353727,85.5130367 C60.2659338,85.5130367 60.6158523,85.1687281 60.6158523,84.7472831 C60.6158523,84.3153196 60.2659338,83.9668035 59.8353727,83.9668035 C55.9070288,83.9668035 52.7163889,87.1630533 52.7163889,91.0935009 C52.7163889,95.0232473 55.9070288,98.2124847 59.8353727,98.2124847 C63.7658203,98.2124847 66.9634726,95.0232473 66.9634726,91.0935009 L66.9634726,44.9063588 C66.9634726,40.9766124 63.7658203,37.7880763 59.8353727,37.7880763 C55.9070288,37.7880763 52.7163889,40.9766124 52.7163889,44.9063588" id="Fill-5" fill="#FFFFFF"></path>
                    <path d="M50.514076,93.2535291 C46.5808234,93.2535291 43.394391,90.0537731 43.394391,86.121923 C43.394391,85.2923566 43.5325352,84.4705039 43.8151347,83.6935305 C43.9680049,83.2903177 44.4097858,83.0771409 44.80248,83.2265049 C45.2091989,83.3632467 45.4216745,83.8078325 45.2688043,84.213149 C45.0472126,84.8239286 44.9301056,85.4767826 44.9301056,86.121923 C44.9301056,89.2003646 47.4349332,91.7058934 50.514076,91.7058934 C51.4341023,91.7058934 52.3471162,91.4814968 53.1465292,91.0446246 C53.5258998,90.8426676 53.9936266,90.9801105 54.2061022,91.3559749 C54.404553,91.7353455 54.269915,92.2030723 53.8919469,92.4008218 C52.8548136,92.9618134 51.687951,93.2535291 50.514076,93.2535291" id="Fill-7" fill="#FFFFFF"></path>
                    <path d="M44.1618275,84.7277186 C40.2320812,84.7277186 37.0470512,81.5426886 37.0470512,77.6143447 C37.0470512,75.9566144 37.6269763,74.3402573 38.6984703,73.0527815 C38.9635388,72.7288088 39.4565102,72.6874357 39.7797817,72.9574129 C40.1037543,73.2322988 40.1563473,73.7175566 39.8786564,74.038023 C39.0441814,75.0443018 38.5813633,76.3121429 38.5813633,77.6143447 C38.5813633,80.6906825 41.0854897,83.1948089 44.1618275,83.1948089 C44.2782333,83.1948089 44.3806143,83.1948089 44.482294,83.1737717 C47.4345125,83.0096817 49.7436942,80.5644594 49.7436942,77.6143447 C49.7436942,77.1928997 50.0908078,76.8478899 50.5143565,76.8478899 C50.9442163,76.8478899 51.2892262,77.1928997 51.2892262,77.6143447 C51.2892262,81.3821047 48.3426177,84.4991145 44.5972973,84.7193037 C44.4668667,84.7242124 44.312594,84.7277186 44.1618275,84.7277186" id="Fill-9" fill="#FFFFFF"></path>
                    <path d="M59.9537419,78.381641 C59.5189734,78.381641 59.1739636,78.0352287 59.1739636,77.6144849 C59.1739636,75.4322275 57.4145536,73.6700125 55.2308936,73.6700125 C53.0500387,73.6700125 51.2892262,75.4322275 51.2892262,77.6144849 C51.2892262,78.0352287 50.9442163,78.381641 50.5143565,78.381641 C50.0908078,78.381641 49.7436942,78.0352287 49.7436942,77.6144849 C49.7436942,74.5914413 52.2092525,72.1244806 55.2308936,72.1244806 C58.2553398,72.1244806 60.7187943,74.5914413 60.7187943,77.6144849 C60.7187943,78.0352287 60.3744856,78.381641 59.9537419,78.381641" id="Fill-11" fill="#FFFFFF"></path>
                    <path d="M42.3583797,75.115127 C38.4433593,75.115127 35.2436033,71.9265908 35.2436033,67.9996494 C35.2436033,64.0656956 38.4433593,60.870147 42.3583797,60.870147 C46.2902298,60.870147 49.4892845,64.0656956 49.4892845,67.9996494 C49.4892845,68.4168869 49.1414697,68.7661042 48.7172198,68.7661042 C48.2887625,68.7661042 47.9388439,68.4168869 47.9388439,67.9996494 C47.9388439,64.9198053 45.4375225,62.4170814 42.3583797,62.4170814 C39.2841456,62.4170814 36.788434,64.9198053 36.788434,67.9996494 C36.788434,71.075286 39.2841456,73.5766074 42.3583797,73.5766074 C42.7917457,73.5766074 43.1388593,73.9244222 43.1388593,74.3472697 C43.1388593,74.7792332 42.7917457,75.115127 42.3583797,75.115127" id="Fill-13" fill="#FFFFFF"></path>
                    <path d="M39.9705188,62.8885949 C39.772068,62.8885949 39.5630986,62.8030437 39.4074235,62.6410573 C38.1578146,61.3150134 37.4642887,59.5843542 37.4642887,57.7548202 C37.4642887,53.8229701 40.6640447,50.6372389 44.5937911,50.6372389 C44.6379692,50.6372389 44.698977,50.6372389 44.7536737,50.6386414 C48.132947,50.6877282 51.0360787,52.9401096 51.4519138,55.8761995 C51.736617,57.888757 53.0710759,59.9209492 55.3998924,59.9209492 C55.8318559,59.9209492 56.174762,60.2680627 56.174762,60.7000263 C56.174762,61.1200688 55.8318559,61.4678836 55.3998924,61.4678836 C52.5752995,61.4678836 50.3776148,59.3052608 49.9260165,56.094285 C49.5810067,53.6918383 46.9899266,52.2115217 44.6919646,52.1757585 L44.5937911,52.174356 C41.5160508,52.174356 39.0112231,54.6777811 39.0112231,57.7548202 C39.0112231,59.1832452 39.5483726,60.5443511 40.5357179,61.589198 C40.8281348,61.9005484 40.8176162,62.3808975 40.5090708,62.6712106 C40.3512919,62.8191722 40.161256,62.8885949 39.9705188,62.8885949" id="Fill-15" fill="#FFFFFF"></path>
                    <path d="M44.7004496,52.1755481 C44.3715683,52.1755481 44.0602179,51.9525539 43.9662518,51.6257763 C43.7748134,50.9736235 43.6780424,50.3032385 43.6780424,49.6300486 C43.6780424,45.7024059 46.8665785,42.5173759 50.7928187,42.5173759 C51.8916611,42.5173759 52.9231844,42.7494862 53.9007124,43.2214204 C54.2828879,43.4107551 54.4385631,43.8770794 54.2541371,44.259255 C54.0669061,44.642833 53.6096979,44.7992094 53.2275224,44.610576 C52.46808,44.2403215 51.6490322,44.0516881 50.7928187,44.0516881 C47.7192858,44.0516881 45.2158607,46.5523082 45.2158607,49.6300486 C45.2158607,50.1657956 45.2986069,50.6819079 45.4374524,51.1889041 C45.5580656,51.6012329 45.328059,52.0338977 44.9192364,52.1418886 C44.8498136,52.1706394 44.7712748,52.1755481 44.7004496,52.1755481" id="Fill-17" fill="#FFFFFF"></path>
                    <path d="M75.6296012,38.5561439 C72.1128849,38.5561439 69.2770722,41.3905541 69.2770722,44.9072704 L69.2770722,91.0866989 C69.2770722,93.9891294 71.2181032,96.4343516 73.8821122,97.1895866 C73.8821122,97.1895866 73.8870209,97.1951965 73.8947345,97.1895866 C74.0840692,97.2421796 74.2790138,97.2807478 74.4949956,97.3221209 C74.7165873,97.3712077 74.9578137,97.4006597 75.222181,97.4125808 C75.3491053,97.4392279 75.4963656,97.4392279 75.6296012,97.4392279 C78.9997584,97.4392279 81.6336141,94.933699 81.9428607,91.7269306 L81.9428607,91.7199182 C82.8320325,92.1967611 83.8754769,92.4821656 84.9525808,92.4821656 C88.4538698,92.4821656 91.3051098,89.6393405 91.3051098,86.1205205 C91.3051098,85.3765054 91.1515383,84.6233741 90.919428,83.958599 C91.0484561,83.958599 91.1753805,83.9656114 91.3051098,83.9656114 C94.8021914,83.9656114 97.6506264,81.1297987 97.6506264,77.6144849 C97.6506264,76.0591356 97.0896347,74.6566566 96.1696085,73.5465944 C98.1316767,72.4694904 99.450007,70.3861078 99.450007,67.9962834 C99.450007,65.3350794 97.8140152,63.0546484 95.4908086,62.1212986 C96.5686138,60.9810831 97.2326876,59.4411611 97.2326876,57.7532775 C97.2326876,54.2547935 94.3807464,51.4077609 90.8815611,51.4077609 L90.7693628,51.4077609 C90.9271417,50.8593916 91.0176016,50.2394959 91.0176016,49.6287162 C91.0176016,46.1316346 88.1663616,43.2839009 84.6671763,43.2839009 C83.7141918,43.2839009 82.7044069,43.5104013 81.8902678,43.8883694 C81.4071137,40.8639232 78.7795692,38.5561439 75.6296012,38.5561439" id="Fill-19" fill="#F05424"></path>
                    <path d="M82.7467617,44.9063588 C82.7467617,48.8368064 79.544902,52.0330562 75.6284792,52.0330562 C75.1958144,52.0330562 74.8472983,51.6845402 74.8472983,51.2525766 C74.8472983,50.8311317 75.1958144,50.486823 75.6284792,50.486823 C78.7055183,50.486823 81.2068397,47.9833979 81.2068397,44.9063588 C81.2068397,41.827216 78.7055183,39.3230896 75.6284792,39.3230896 C72.5521413,39.3230896 70.0480149,41.827216 70.0480149,44.9063588 L70.0480149,91.0935009 C70.0480149,94.1726438 72.5521413,96.6767701 75.6284792,96.6767701 C78.7055183,96.6767701 81.2068397,94.1726438 81.2068397,91.0935009 C81.2068397,88.0171631 78.7055183,85.5130367 75.6284792,85.5130367 C75.1958144,85.5130367 74.8472983,85.1687281 74.8472983,84.7472831 C74.8472983,84.3153196 75.1958144,83.9668035 75.6284792,83.9668035 C79.544902,83.9668035 82.7467617,87.1630533 82.7467617,91.0935009 C82.7467617,95.0232473 79.544902,98.2124847 75.6284792,98.2124847 C71.6966291,98.2124847 68.5003793,95.0232473 68.5003793,91.0935009 L68.5003793,44.9063588 C68.5003793,40.9766124 71.6966291,37.7880763 75.6284792,37.7880763 C79.544902,37.7880763 82.7467617,40.9766124 82.7467617,44.9063588" id="Fill-21" fill="#FFFFFF"></path>
                    <path d="M84.9497759,93.2535291 C88.8711073,93.2535291 92.0680584,90.0537731 92.0680584,86.121923 C92.0680584,85.2923566 91.9327192,84.4705039 91.6466134,83.6935305 C91.4958469,83.2903177 91.0554685,83.0771409 90.6501521,83.2265049 C90.2539517,83.3632467 90.0428786,83.8078325 90.1964501,84.213149 C90.4152368,84.8239286 90.5218252,85.4767826 90.5218252,86.121923 C90.5218252,89.2003646 88.0310224,91.7058934 84.9497759,91.7058934 C84.0185297,91.7058934 83.1167357,91.4814968 82.3152189,91.0446246 C81.9372508,90.8426676 81.4660178,90.9801105 81.2591522,91.3559749 C81.0585977,91.7353455 81.1946381,92.2030723 81.5698013,92.4008218 C82.6076358,92.9618134 83.7766021,93.2535291 84.9497759,93.2535291" id="Fill-23" fill="#FFFFFF"></path>
                    <path d="M91.3020243,84.7277186 C95.2331732,84.7277186 98.4160994,81.5426886 98.4160994,77.6143447 C98.4160994,75.9566144 97.8361743,74.3402573 96.7639791,73.0527815 C96.4996118,72.7288088 96.0045367,72.6874357 95.683369,72.9574129 C95.3579938,73.2322988 95.3075046,73.7175566 95.5844942,74.038023 C96.4189692,75.0443018 96.8838911,76.3121429 96.8838911,77.6143447 C96.8838911,80.6906825 94.3776609,83.1948089 91.3020243,83.1948089 C91.1856186,83.1948089 91.0825364,83.1948089 90.9787529,83.1737717 C88.0286382,83.0096817 85.7194564,80.5644594 85.7194564,77.6143447 C85.7194564,77.1928997 85.3744465,76.8478899 84.9494954,76.8478899 C84.5189343,76.8478899 84.1746257,77.1928997 84.1746257,77.6143447 C84.1746257,81.3821047 87.1184292,84.4991145 90.8700608,84.7193037 C90.9962839,84.7242124 91.1512578,84.7277186 91.3020243,84.7277186" id="Fill-25" fill="#FFFFFF"></path>
                    <path d="M75.508427,78.381641 C75.944598,78.381641 76.2882053,78.0352287 76.2882053,77.6144849 C76.2882053,75.4322275 78.0504203,73.6700125 80.2326777,73.6700125 C82.4107277,73.6700125 84.1743452,75.4322275 84.1743452,77.6144849 C84.1743452,78.0352287 84.519355,78.381641 84.9499161,78.381641 C85.374166,78.381641 85.7198771,78.0352287 85.7198771,77.6144849 C85.7198771,74.5914413 83.2536177,72.1244806 80.2326777,72.1244806 C77.2082316,72.1244806 74.7454784,74.5914413 74.7454784,77.6144849 C74.7454784,78.0352287 75.0890857,78.381641 75.508427,78.381641" id="Fill-27" fill="#FFFFFF"></path>
                    <path d="M93.106524,75.115127 C97.0208431,75.115127 100.219898,71.9265908 100.219898,67.9996494 C100.219898,64.0656956 97.0208431,60.870147 93.106524,60.870147 C89.1732715,60.870147 85.9742167,64.0656956 85.9742167,67.9996494 C85.9742167,68.4168869 86.320629,68.7661042 86.7462814,68.7661042 C87.1733363,68.7661042 87.5239561,68.4168869 87.5239561,67.9996494 C87.5239561,64.9198053 90.02668,62.4170814 93.106524,62.4170814 C96.1807582,62.4170814 98.6736647,64.9198053 98.6736647,67.9996494 C98.6736647,71.075286 96.1807582,73.5766074 93.106524,73.5766074 C92.6717555,73.5766074 92.3253432,73.9244222 92.3253432,74.3472697 C92.3253432,74.7792332 92.6717555,75.115127 93.106524,75.115127" id="Fill-29" fill="#FFFFFF"></path>
                    <path d="M95.491019,62.8885949 C95.6915735,62.8885949 95.9019453,62.8030437 96.056218,62.6410573 C97.3044244,61.3150134 97.9986515,59.5843542 97.9986515,57.7548202 C97.9986515,53.8229701 94.7988955,50.6372389 90.8712529,50.6372389 C90.8256723,50.6372389 90.7667682,50.6372389 90.7092665,50.6386414 C87.3320969,50.6877282 84.4289653,52.9401096 84.0117277,55.8761995 C83.7263232,57.888757 82.3939681,59.9209492 80.0651516,59.9209492 C79.6317856,59.9209492 79.2895807,60.2680627 79.2895807,60.7000263 C79.2895807,61.1200688 79.6317856,61.4678836 80.0651516,61.4678836 C82.8869395,61.4678836 85.0874292,59.3052608 85.537625,56.094285 C85.8826348,53.6918383 88.4737149,52.2115217 90.7723781,52.1757585 L90.8712529,52.174356 C93.945487,52.174356 96.4517171,54.6777811 96.4517171,57.7548202 C96.4517171,59.1832452 95.9124639,60.5443511 94.9265211,61.589198 C94.6355067,61.9005484 94.6453241,62.3808975 94.9573757,62.6712106 C95.1102459,62.8191722 95.300983,62.8885949 95.491019,62.8885949" id="Fill-31" fill="#FFFFFF"></path>
                    <path d="M90.7665578,52.1755481 C91.091933,52.1755481 91.4032833,51.9525539 91.4986519,51.6257763 C91.6886878,50.9736235 91.7847576,50.3032385 91.7847576,49.6300486 C91.7847576,45.7024059 88.5983252,42.5173759 84.66928,42.5173759 C83.5711389,42.5173759 82.5389143,42.7494862 81.5648926,43.2214204 C81.1820158,43.4107551 81.0242369,43.8770794 81.2100654,44.259255 C81.3958939,44.642833 81.8509983,44.7992094 82.2352776,44.610576 C82.9954213,44.2403215 83.8130666,44.0516881 84.66928,44.0516881 C87.7428129,44.0516881 90.2476406,46.5523082 90.2476406,49.6300486 C90.2476406,50.1657956 90.1655955,50.6819079 90.0267501,51.1889041 C89.9047344,51.6012329 90.1354422,52.0338977 90.5449661,52.1418886 C90.6122851,52.1706394 90.6936289,52.1755481 90.7665578,52.1755481" id="Fill-33" fill="#FFFFFF"></path>
                </g>
            </g>
        </g>
    </g>
</svg>