<?xml version="1.0" encoding="UTF-8" standalone="no"?>
<svg width="502px" height="242px" viewBox="0 0 502 242" version="1.1" xmlns="http://www.w3.org/2000/svg" xmlns:xlink="http://www.w3.org/1999/xlink">
    <!-- Generator: Sketch 46.1 (44463) - http://www.bohemiancoding.com/sketch -->
    <title>Group 2</title>
    <desc>Created with Sketch.</desc>
    <defs>
        <polygon id="path-1" points="0 136 135.464 136 135.464 0 0 0"></polygon>
    </defs>
    <g id="Page-1" stroke="none" stroke-width="1" fill="none" fill-rule="evenodd">
        <g id="PD--Home" transform="translate(-770.000000, -574.000000)">
            <g id="Group-2" transform="translate(770.000000, 574.000000)">
                <rect id="Rectangle" fill="#16C6CC" x="0" y="0" width="502" height="242" rx="6"></rect>
                <g id="Page-1" transform="translate(172.000000, 17.000000)">
                    <mask id="mask-2" fill="white">
                        <use xlink:href="#path-1"></use>
                    </mask>
                    <g id="Clip-36"></g>
                    <polygon id="Fill-35" fill="#FFFFFF" mask="url(#mask-2)" points="66.733 7.454 68.729 7.454 68.729 0 66.733 0"></polygon>
                    <polygon id="Fill-37" fill="#FFFFFF" mask="url(#mask-2)" points="52.6103 1.6963 54.5713 1.2753 56.1163 8.5753 54.1653 8.9863"></polygon>
                    <polygon id="Fill-38" fill="#FFFFFF" mask="url(#mask-2)" points="39.1597 6.2851 40.9857 5.4731 44.0237 12.2841 42.1907 13.0971"></polygon>
                    <polygon id="Fill-39" fill="#FFFFFF" mask="url(#mask-2)" points="26.9585 13.5693 28.5665 12.3963 32.9515 18.4323 31.3355 19.6053"></polygon>
                    <polygon id="Fill-40" fill="#FFFFFF" mask="url(#mask-2)" points="16.5288 23.2422 17.8638 21.7572 23.4058 26.7442 22.0658 28.2302"></polygon>
                    <polygon id="Fill-41" fill="#FFFFFF" mask="url(#mask-2)" points="8.3389 34.8623 9.3389 33.1333 15.7969 36.8603 14.7969 38.6043"></polygon>
                    <polygon id="Fill-42" fill="#FFFFFF" mask="url(#mask-2)" points="2.751 47.9394 3.366 46.0394 10.455 48.3404 9.841 50.2454"></polygon>
                    <polygon id="Fill-43" fill="#FFFFFF" mask="url(#mask-2)" points="0 61.8896 0.206 59.8916 7.616 60.6796 7.411 62.6636"></polygon>
                    <polygon id="Fill-44" fill="#FFFFFF" mask="url(#mask-2)" points="0 74.1123 7.411 73.3383 7.616 75.3223 0.206 76.1083"></polygon>
                    <polygon id="Fill-45" fill="#FFFFFF" mask="url(#mask-2)" points="2.751 88.0644 9.841 85.7654 10.455 87.6604 3.366 89.9624"></polygon>
                    <polygon id="Fill-46" fill="#FFFFFF" mask="url(#mask-2)" points="8.3389 101.1396 14.7969 97.4116 15.7969 99.1436 9.3389 102.8686"></polygon>
                    <polygon id="Fill-47" fill="#FFFFFF" mask="url(#mask-2)" points="16.5288 112.7646 22.0688 107.7746 23.4058 109.2596 17.8638 114.2466"></polygon>
                    <polygon id="Fill-48" fill="#FFFFFF" mask="url(#mask-2)" points="26.9585 122.4297 31.3375 116.4007 32.9515 117.5677 28.5715 123.6037"></polygon>
                    <polygon id="Fill-49" fill="#FFFFFF" mask="url(#mask-2)" points="39.1597 129.7168 42.1907 122.9078 44.0237 123.7218 40.9857 130.5308"></polygon>
                    <polygon id="Fill-50" fill="#FFFFFF" mask="url(#mask-2)" points="52.6103 134.3183 54.1653 127.0183 56.1163 127.4403 54.5713 134.7243"></polygon>
                    <polygon id="Fill-51" fill="#FFFFFF" mask="url(#mask-2)" points="66.733 136 68.729 136 68.729 128.548 66.733 128.548"></polygon>
                    <polygon id="Fill-52" fill="#FFFFFF" mask="url(#mask-2)" points="79.3335 127.4404 81.2955 127.0184 82.8535 134.3184 80.8935 134.7244"></polygon>
                    <polygon id="Fill-53" fill="#FFFFFF" mask="url(#mask-2)" points="91.4526 123.7216 93.2706 122.9086 96.3046 129.7166 94.4746 130.5316"></polygon>
                    <polygon id="Fill-54" fill="#FFFFFF" mask="url(#mask-2)" points="102.5093 117.5674 104.1253 116.4004 108.5173 122.4294 106.8923 123.6034"></polygon>
                    <polygon id="Fill-55" fill="#FFFFFF" mask="url(#mask-2)" points="112.0571 109.2597 113.3931 107.7767 118.9331 112.7617 117.6011 114.2467"></polygon>
                    <polygon id="Fill-56" fill="#FFFFFF" mask="url(#mask-2)" points="119.6675 99.1435 120.6625 97.4165 127.1235 101.1395 126.1235 102.8695"></polygon>
                    <polygon id="Fill-57" fill="#FFFFFF" mask="url(#mask-2)" points="125.0063 87.6601 125.6223 85.7681 132.7123 88.0641 132.0953 89.9631"></polygon>
                    <polygon id="Fill-58" fill="#FFFFFF" mask="url(#mask-2)" points="127.8462 75.3271 128.0512 73.3441 135.4642 74.1121 135.2592 76.1081"></polygon>
                    <polygon id="Fill-59" fill="#FFFFFF" mask="url(#mask-2)" points="127.8462 60.6806 135.2562 59.8916 135.4642 61.8896 128.0532 62.6656"></polygon>
                    <polygon id="Fill-60" fill="#FFFFFF" mask="url(#mask-2)" points="125.0063 48.3418 132.0953 46.0388 132.7123 47.9398 125.6273 50.2448"></polygon>
                    <polygon id="Fill-61" fill="#FFFFFF" mask="url(#mask-2)" points="119.6694 36.8642 126.1234 33.1372 127.1234 34.8662 120.6694 38.6042"></polygon>
                    <polygon id="Fill-62" fill="#FFFFFF" mask="url(#mask-2)" points="112.0639 26.7441 117.6009 21.7571 118.9329 23.2421 113.3979 28.2301"></polygon>
                    <polygon id="Fill-63" fill="#FFFFFF" mask="url(#mask-2)" points="102.5171 18.4326 106.8921 12.3996 108.5171 13.5736 104.1331 19.6056"></polygon>
                    <polygon id="Fill-64" fill="#FFFFFF" mask="url(#mask-2)" points="91.4526 12.2822 94.4746 5.4772 96.3046 6.2852 93.2776 13.0942"></polygon>
                    <polygon id="Fill-65" fill="#FFFFFF" mask="url(#mask-2)" points="79.3501 8.5752 80.8931 1.2782 82.8531 1.6962 81.2981 8.9862"></polygon>
                </g>
                <path d="M239.503139,36 C266.287681,36.0079057 288,57.8829452 288,84.8737556 C288,99.1735646 281.895912,112.032957 272.186966,120.966385 C271.724,121.371156 271.261819,121.769603 270.798068,122.179118 C263.214843,129.143238 258.451001,139.156583 258.451001,150.306766 L258.451001,161 L239.503139,161 L220.548999,161 L220.548999,150.306766 C220.548999,139.156583 215.787511,129.143238 208.201932,122.179118 C207.738966,121.769603 207.275215,121.371156 206.814603,120.966385 C197.104088,112.032957 191,99.1735646 191,84.8737556 C191,57.8829452 212.713103,36.0079057 239.503139,36 Z" id="Fill-1" fill="#FFD85C"></path>
                <polygon id="Fill-35" fill="#242D3C" points="220 182 259 182 259 161 220 161"></polygon>
                <polygon id="Fill-36" fill="#3E4959" points="218 167 261 167 261 164 218 164"></polygon>
                <polygon id="Fill-37" fill="#3E4959" points="218 173 261 173 261 170 218 170"></polygon>
                <polygon id="Fill-38" fill="#3E4959" points="218 179 261 179 261 176 218 176"></polygon>
                <polygon id="Fill-39" fill="#3E4959" points="227 189 252 189 252 182 227 182"></polygon>
                <path d="M278.900537,85 C278.900537,106.633941 261.366042,124.167734 239.732101,124.167734 C218.099563,124.167734 200.562263,106.633941 200.562263,85 C200.562263,63.3653578 218.099563,45.8322656 239.732101,45.8322656 C261.366042,45.8322656 278.900537,63.3653578 278.900537,85 Z" id="Fill-1" fill="#FFFFFF"></path>
                <path d="M231.8339,55.5561439 C235.348513,55.5561439 238.182923,58.3905541 238.182923,61.9072704 L238.182923,108.086699 C238.182923,110.989129 236.245398,113.434352 233.582791,114.189587 C233.582791,114.189587 233.57648,114.195197 233.568767,114.189587 C233.379432,114.24218 233.187292,114.280748 232.965701,114.322121 C232.746914,114.371208 232.504285,114.40066 232.24132,114.412581 C232.114396,114.439228 231.968538,114.439228 231.8339,114.439228 C228.46234,114.439228 225.830588,111.933699 225.519238,108.726931 L225.519238,108.719918 C224.629365,109.196761 223.588024,109.482166 222.508817,109.482166 C219.011034,109.482166 216.158391,106.639341 216.158391,103.120521 C216.158391,102.376505 216.311262,101.623374 216.542671,100.958599 C216.416448,100.958599 216.28742,100.965611 216.158391,100.965611 C212.660609,100.965611 209.814979,98.1297987 209.814979,94.6144849 C209.814979,93.0591356 210.374568,91.6566566 211.295295,90.5465944 C209.33463,89.4694904 208.010689,87.3861078 208.010689,84.9962834 C208.010689,82.3350794 209.650187,80.0546484 211.971991,79.1212986 C210.893485,77.9810831 210.230814,76.4411611 210.230814,74.7532775 C210.230814,71.2547935 213.080651,68.4077609 216.579135,68.4077609 L216.695541,68.4077609 C216.53636,67.8593916 216.4459,67.2394959 216.4459,66.6287162 C216.4459,63.1316346 219.298542,60.2839009 222.796325,60.2839009 C223.745803,60.2839009 224.758393,60.5104013 225.573935,60.8883694 C226.056388,57.8639232 228.681127,55.5561439 231.8339,55.5561439" id="Fill-3" fill="#F05424"></path>
                <path d="M224.716389,61.9063588 C224.716389,65.8368064 227.907029,69.0330562 231.835373,69.0330562 C232.265934,69.0330562 232.615852,68.6845402 232.615852,68.2525766 C232.615852,67.8311317 232.265934,67.486823 231.835373,67.486823 C228.75623,67.486823 226.25561,64.9833979 226.25561,61.9063588 C226.25561,58.827216 228.75623,56.3230896 231.835373,56.3230896 C234.911711,56.3230896 237.415837,58.827216 237.415837,61.9063588 L237.415837,108.093501 C237.415837,111.172644 234.911711,113.67677 231.835373,113.67677 C228.75623,113.67677 226.25561,111.172644 226.25561,108.093501 C226.25561,105.017163 228.75623,102.513037 231.835373,102.513037 C232.265934,102.513037 232.615852,102.168728 232.615852,101.747283 C232.615852,101.31532 232.265934,100.966804 231.835373,100.966804 C227.907029,100.966804 224.716389,104.163053 224.716389,108.093501 C224.716389,112.023247 227.907029,115.212485 231.835373,115.212485 C235.76582,115.212485 238.963473,112.023247 238.963473,108.093501 L238.963473,61.9063588 C238.963473,57.9766124 235.76582,54.7880763 231.835373,54.7880763 C227.907029,54.7880763 224.716389,57.9766124 224.716389,61.9063588" id="Fill-5" fill="#FFFFFF"></path>
                <path d="M222.514076,110.253529 C218.580823,110.253529 215.394391,107.053773 215.394391,103.121923 C215.394391,102.292357 215.532535,101.470504 215.815135,100.69353 C215.968005,100.290318 216.409786,100.077141 216.80248,100.226505 C217.209199,100.363247 217.421674,100.807833 217.268804,101.213149 C217.047213,101.823929 216.930106,102.476783 216.930106,103.121923 C216.930106,106.200365 219.434933,108.705893 222.514076,108.705893 C223.434102,108.705893 224.347116,108.481497 225.146529,108.044625 C225.5259,107.842668 225.993627,107.980111 226.206102,108.355975 C226.404553,108.735345 226.269915,109.203072 225.891947,109.400822 C224.854814,109.961813 223.687951,110.253529 222.514076,110.253529" id="Fill-7" fill="#FFFFFF"></path>
                <path d="M216.161828,101.727719 C212.232081,101.727719 209.047051,98.5426886 209.047051,94.6143447 C209.047051,92.9566144 209.626976,91.3402573 210.69847,90.0527815 C210.963539,89.7288088 211.45651,89.6874357 211.779782,89.9574129 C212.103754,90.2322988 212.156347,90.7175566 211.878656,91.038023 C211.044181,92.0443018 210.581363,93.3121429 210.581363,94.6143447 C210.581363,97.6906825 213.08549,100.194809 216.161828,100.194809 C216.278233,100.194809 216.380614,100.194809 216.482294,100.173772 C219.434512,100.009682 221.743694,97.5644594 221.743694,94.6143447 C221.743694,94.1928997 222.090808,93.8478899 222.514356,93.8478899 C222.944216,93.8478899 223.289226,94.1928997 223.289226,94.6143447 C223.289226,98.3821047 220.342618,101.499114 216.597297,101.719304 C216.466867,101.724212 216.312594,101.727719 216.161828,101.727719" id="Fill-9" fill="#FFFFFF"></path>
                <path d="M231.953742,95.381641 C231.518973,95.381641 231.173964,95.0352287 231.173964,94.6144849 C231.173964,92.4322275 229.414554,90.6700125 227.230894,90.6700125 C225.050039,90.6700125 223.289226,92.4322275 223.289226,94.6144849 C223.289226,95.0352287 222.944216,95.381641 222.514356,95.381641 C222.090808,95.381641 221.743694,95.0352287 221.743694,94.6144849 C221.743694,91.5914413 224.209252,89.1244806 227.230894,89.1244806 C230.25534,89.1244806 232.718794,91.5914413 232.718794,94.6144849 C232.718794,95.0352287 232.374486,95.381641 231.953742,95.381641" id="Fill-11" fill="#FFFFFF"></path>
                <path d="M214.35838,92.115127 C210.443359,92.115127 207.243603,88.9265908 207.243603,84.9996494 C207.243603,81.0656956 210.443359,77.870147 214.35838,77.870147 C218.29023,77.870147 221.489285,81.0656956 221.489285,84.9996494 C221.489285,85.4168869 221.14147,85.7661042 220.71722,85.7661042 C220.288762,85.7661042 219.938844,85.4168869 219.938844,84.9996494 C219.938844,81.9198053 217.437522,79.4170814 214.35838,79.4170814 C211.284146,79.4170814 208.788434,81.9198053 208.788434,84.9996494 C208.788434,88.075286 211.284146,90.5766074 214.35838,90.5766074 C214.791746,90.5766074 215.138859,90.9244222 215.138859,91.3472697 C215.138859,91.7792332 214.791746,92.115127 214.35838,92.115127" id="Fill-13" fill="#FFFFFF"></path>
                <path d="M211.970519,79.8885949 C211.772068,79.8885949 211.563099,79.8030437 211.407423,79.6410573 C210.157815,78.3150134 209.464289,76.5843542 209.464289,74.7548202 C209.464289,70.8229701 212.664045,67.6372389 216.593791,67.6372389 C216.637969,67.6372389 216.698977,67.6372389 216.753674,67.6386414 C220.132947,67.6877282 223.036079,69.9401096 223.451914,72.8761995 C223.736617,74.888757 225.071076,76.9209492 227.399892,76.9209492 C227.831856,76.9209492 228.174762,77.2680627 228.174762,77.7000263 C228.174762,78.1200688 227.831856,78.4678836 227.399892,78.4678836 C224.5753,78.4678836 222.377615,76.3052608 221.926017,73.094285 C221.581007,70.6918383 218.989927,69.2115217 216.691965,69.1757585 L216.593791,69.174356 C213.516051,69.174356 211.011223,71.6777811 211.011223,74.7548202 C211.011223,76.1832452 211.548373,77.5443511 212.535718,78.589198 C212.828135,78.9005484 212.817616,79.3808975 212.509071,79.6712106 C212.351292,79.8191722 212.161256,79.8885949 211.970519,79.8885949" id="Fill-15" fill="#FFFFFF"></path>
                <path d="M216.70045,69.1755481 C216.371568,69.1755481 216.060218,68.9525539 215.966252,68.6257763 C215.774813,67.9736235 215.678042,67.3032385 215.678042,66.6300486 C215.678042,62.7024059 218.866579,59.5173759 222.792819,59.5173759 C223.891661,59.5173759 224.923184,59.7494862 225.900712,60.2214204 C226.282888,60.4107551 226.438563,60.8770794 226.254137,61.259255 C226.066906,61.642833 225.609698,61.7992094 225.227522,61.610576 C224.46808,61.2403215 223.649032,61.0516881 222.792819,61.0516881 C219.719286,61.0516881 217.215861,63.5523082 217.215861,66.6300486 C217.215861,67.1657956 217.298607,67.6819079 217.437452,68.1889041 C217.558066,68.6012329 217.328059,69.0338977 216.919236,69.1418886 C216.849814,69.1706394 216.771275,69.1755481 216.70045,69.1755481" id="Fill-17" fill="#FFFFFF"></path>
                <path d="M247.629601,55.5561439 C244.112885,55.5561439 241.277072,58.3905541 241.277072,61.9072704 L241.277072,108.086699 C241.277072,110.989129 243.218103,113.434352 245.882112,114.189587 C245.882112,114.189587 245.887021,114.195197 245.894735,114.189587 C246.084069,114.24218 246.279014,114.280748 246.494996,114.322121 C246.716587,114.371208 246.957814,114.40066 247.222181,114.412581 C247.349105,114.439228 247.496366,114.439228 247.629601,114.439228 C250.999758,114.439228 253.633614,111.933699 253.942861,108.726931 L253.942861,108.719918 C254.832032,109.196761 255.875477,109.482166 256.952581,109.482166 C260.45387,109.482166 263.30511,106.639341 263.30511,103.120521 C263.30511,102.376505 263.151538,101.623374 262.919428,100.958599 C263.048456,100.958599 263.17538,100.965611 263.30511,100.965611 C266.802191,100.965611 269.650626,98.1297987 269.650626,94.6144849 C269.650626,93.0591356 269.089635,91.6566566 268.169608,90.5465944 C270.131677,89.4694904 271.450007,87.3861078 271.450007,84.9962834 C271.450007,82.3350794 269.814015,80.0546484 267.490809,79.1212986 C268.568614,77.9810831 269.232688,76.4411611 269.232688,74.7532775 C269.232688,71.2547935 266.380746,68.4077609 262.881561,68.4077609 L262.769363,68.4077609 C262.927142,67.8593916 263.017602,67.2394959 263.017602,66.6287162 C263.017602,63.1316346 260.166362,60.2839009 256.667176,60.2839009 C255.714192,60.2839009 254.704407,60.5104013 253.890268,60.8883694 C253.407114,57.8639232 250.779569,55.5561439 247.629601,55.5561439" id="Fill-19" fill="#F05424"></path>
                <path d="M254.746762,61.9063588 C254.746762,65.8368064 251.544902,69.0330562 247.628479,69.0330562 C247.195814,69.0330562 246.847298,68.6845402 246.847298,68.2525766 C246.847298,67.8311317 247.195814,67.486823 247.628479,67.486823 C250.705518,67.486823 253.20684,64.9833979 253.20684,61.9063588 C253.20684,58.827216 250.705518,56.3230896 247.628479,56.3230896 C244.552141,56.3230896 242.048015,58.827216 242.048015,61.9063588 L242.048015,108.093501 C242.048015,111.172644 244.552141,113.67677 247.628479,113.67677 C250.705518,113.67677 253.20684,111.172644 253.20684,108.093501 C253.20684,105.017163 250.705518,102.513037 247.628479,102.513037 C247.195814,102.513037 246.847298,102.168728 246.847298,101.747283 C246.847298,101.31532 247.195814,100.966804 247.628479,100.966804 C251.544902,100.966804 254.746762,104.163053 254.746762,108.093501 C254.746762,112.023247 251.544902,115.212485 247.628479,115.212485 C243.696629,115.212485 240.500379,112.023247 240.500379,108.093501 L240.500379,61.9063588 C240.500379,57.9766124 243.696629,54.7880763 247.628479,54.7880763 C251.544902,54.7880763 254.746762,57.9766124 254.746762,61.9063588" id="Fill-21" fill="#FFFFFF"></path>
                <path d="M256.949776,110.253529 C260.871107,110.253529 264.068058,107.053773 264.068058,103.121923 C264.068058,102.292357 263.932719,101.470504 263.646613,100.69353 C263.495847,100.290318 263.055469,100.077141 262.650152,100.226505 C262.253952,100.363247 262.042879,100.807833 262.19645,101.213149 C262.415237,101.823929 262.521825,102.476783 262.521825,103.121923 C262.521825,106.200365 260.031022,108.705893 256.949776,108.705893 C256.01853,108.705893 255.116736,108.481497 254.315219,108.044625 C253.937251,107.842668 253.466018,107.980111 253.259152,108.355975 C253.058598,108.735345 253.194638,109.203072 253.569801,109.400822 C254.607636,109.961813 255.776602,110.253529 256.949776,110.253529" id="Fill-23" fill="#FFFFFF"></path>
                <path d="M263.302024,101.727719 C267.233173,101.727719 270.416099,98.5426886 270.416099,94.6143447 C270.416099,92.9566144 269.836174,91.3402573 268.763979,90.0527815 C268.499612,89.7288088 268.004537,89.6874357 267.683369,89.9574129 C267.357994,90.2322988 267.307505,90.7175566 267.584494,91.038023 C268.418969,92.0443018 268.883891,93.3121429 268.883891,94.6143447 C268.883891,97.6906825 266.377661,100.194809 263.302024,100.194809 C263.185619,100.194809 263.082536,100.194809 262.978753,100.173772 C260.028638,100.009682 257.719456,97.5644594 257.719456,94.6143447 C257.719456,94.1928997 257.374447,93.8478899 256.949495,93.8478899 C256.518934,93.8478899 256.174626,94.1928997 256.174626,94.6143447 C256.174626,98.3821047 259.118429,101.499114 262.870061,101.719304 C262.996284,101.724212 263.151258,101.727719 263.302024,101.727719" id="Fill-25" fill="#FFFFFF"></path>
                <path d="M247.508427,95.381641 C247.944598,95.381641 248.288205,95.0352287 248.288205,94.6144849 C248.288205,92.4322275 250.05042,90.6700125 252.232678,90.6700125 C254.410728,90.6700125 256.174345,92.4322275 256.174345,94.6144849 C256.174345,95.0352287 256.519355,95.381641 256.949916,95.381641 C257.374166,95.381641 257.719877,95.0352287 257.719877,94.6144849 C257.719877,91.5914413 255.253618,89.1244806 252.232678,89.1244806 C249.208232,89.1244806 246.745478,91.5914413 246.745478,94.6144849 C246.745478,95.0352287 247.089086,95.381641 247.508427,95.381641" id="Fill-27" fill="#FFFFFF"></path>
                <path d="M265.106524,92.115127 C269.020843,92.115127 272.219898,88.9265908 272.219898,84.9996494 C272.219898,81.0656956 269.020843,77.870147 265.106524,77.870147 C261.173271,77.870147 257.974217,81.0656956 257.974217,84.9996494 C257.974217,85.4168869 258.320629,85.7661042 258.746281,85.7661042 C259.173336,85.7661042 259.523956,85.4168869 259.523956,84.9996494 C259.523956,81.9198053 262.02668,79.4170814 265.106524,79.4170814 C268.180758,79.4170814 270.673665,81.9198053 270.673665,84.9996494 C270.673665,88.075286 268.180758,90.5766074 265.106524,90.5766074 C264.671756,90.5766074 264.325343,90.9244222 264.325343,91.3472697 C264.325343,91.7792332 264.671756,92.115127 265.106524,92.115127" id="Fill-29" fill="#FFFFFF"></path>
                <path d="M267.491019,79.8885949 C267.691573,79.8885949 267.901945,79.8030437 268.056218,79.6410573 C269.304424,78.3150134 269.998652,76.5843542 269.998652,74.7548202 C269.998652,70.8229701 266.798896,67.6372389 262.871253,67.6372389 C262.825672,67.6372389 262.766768,67.6372389 262.709267,67.6386414 C259.332097,67.6877282 256.428965,69.9401096 256.011728,72.8761995 C255.726323,74.888757 254.393968,76.9209492 252.065152,76.9209492 C251.631786,76.9209492 251.289581,77.2680627 251.289581,77.7000263 C251.289581,78.1200688 251.631786,78.4678836 252.065152,78.4678836 C254.88694,78.4678836 257.087429,76.3052608 257.537625,73.094285 C257.882635,70.6918383 260.473715,69.2115217 262.772378,69.1757585 L262.871253,69.174356 C265.945487,69.174356 268.451717,71.6777811 268.451717,74.7548202 C268.451717,76.1832452 267.912464,77.5443511 266.926521,78.589198 C266.635507,78.9005484 266.645324,79.3808975 266.957376,79.6712106 C267.110246,79.8191722 267.300983,79.8885949 267.491019,79.8885949" id="Fill-31" fill="#FFFFFF"></path>
                <path d="M262.766558,69.1755481 C263.091933,69.1755481 263.403283,68.9525539 263.498652,68.6257763 C263.688688,67.9736235 263.784758,67.3032385 263.784758,66.6300486 C263.784758,62.7024059 260.598325,59.5173759 256.66928,59.5173759 C255.571139,59.5173759 254.538914,59.7494862 253.564893,60.2214204 C253.182016,60.4107551 253.024237,60.8770794 253.210065,61.259255 C253.395894,61.642833 253.850998,61.7992094 254.235278,61.610576 C254.995421,61.2403215 255.813067,61.0516881 256.66928,61.0516881 C259.742813,61.0516881 262.247641,63.5523082 262.247641,66.6300486 C262.247641,67.1657956 262.165596,67.6819079 262.02675,68.1889041 C261.904734,68.6012329 262.135442,69.0338977 262.544966,69.1418886 C262.612285,69.1706394 262.693629,69.1755481 262.766558,69.1755481" id="Fill-33" fill="#FFFFFF"></path>
            </g>
        </g>
    </g>
</svg>